<?xml version="1.0" encoding="UTF-8" standalone="no"?><!DOCTYPE svg PUBLIC "-//W3C//DTD SVG 1.1//EN" "http://www.w3.org/Graphics/SVG/1.1/DTD/svg11.dtd"><svg width="100%" height="100%" viewBox="0 0 55 55" version="1.1" xmlns="http://www.w3.org/2000/svg" xmlns:xlink="http://www.w3.org/1999/xlink" xml:space="preserve" xmlns:serif="http://www.serif.com/" style="fill-rule:evenodd;clip-rule:evenodd;stroke-linejoin:round;stroke-miterlimit:1.41421;"><g><path d="M42.279,33.562l-13.139,-0.006c-0.284,-0.028 -0.508,-0.271 -0.512,-0.561l0,-15.043c0.004,-0.277 0.098,-0.419 0.456,-0.559c0.921,-0.355 1.963,-0.567 3.033,-0.567c4.369,0 7.951,3.352 8.328,7.623c0.564,-0.235 1.185,-0.366 1.834,-0.366c2.619,0 4.741,2.12 4.741,4.74c0,2.617 -2.122,4.739 -4.741,4.739Zm-14.098,-0.549l0,-0.005c-0.005,0.286 -0.238,0.52 -0.522,0.52c-0.283,0 -0.519,-0.234 -0.522,-0.517l-0.214,-3.877l0.214,-10.675c0.003,-0.287 0.239,-0.522 0.522,-0.522c0.284,0 0.517,0.235 0.522,0.521l0.233,10.676l-0.233,3.879Zm-1.651,0.055l0,-0.003c-0.004,0.268 -0.224,0.49 -0.489,0.49c-0.266,0 -0.485,-0.22 -0.489,-0.487l-0.186,-3.935l0.186,-9.787c0.004,-0.268 0.222,-0.487 0.489,-0.487c0.264,0 0.485,0.219 0.489,0.487l0.207,9.789l-0.207,3.933Zm-1.658,0.025l0,-0.004c-0.007,0.256 -0.208,0.456 -0.456,0.456c-0.251,0 -0.451,-0.201 -0.457,-0.452l-0.204,-3.959l0.204,-8.227c0.006,-0.256 0.207,-0.454 0.457,-0.454c0.249,0 0.449,0.199 0.456,0.452l0.228,8.229l-0.228,3.959Zm-1.646,0.025l0,-0.002c-0.007,0.235 -0.193,0.423 -0.424,0.423c-0.232,0 -0.418,-0.188 -0.423,-0.421l-0.223,-3.985l0.223,-8.538c0.005,-0.235 0.191,-0.421 0.423,-0.421c0.231,0 0.417,0.183 0.424,0.421l0.251,8.538l-0.251,3.985Zm-1.634,0.035l0,0.004l0,-0.002c-0.009,0.218 -0.179,0.386 -0.391,0.386c-0.212,0 -0.384,-0.17 -0.391,-0.384l-0.242,-4.025l0.242,-8.762c0.007,-0.218 0.179,-0.387 0.391,-0.387c0.212,0 0.384,0.168 0.391,0.387l0.273,8.762l-0.273,4.023l0,-0.002Zm-1.622,0.027l0,-0.002c-0.009,0.199 -0.165,0.353 -0.357,0.353c-0.195,0 -0.351,-0.155 -0.358,-0.351l-0.262,-4.048l0.262,-8.476c0.007,-0.199 0.163,-0.356 0.358,-0.356c0.192,0 0.348,0.158 0.357,0.356l0.296,8.476l-0.296,4.048Zm-1.609,0.042l0,-0.002c-0.009,0.18 -0.151,0.32 -0.325,0.32c-0.174,0 -0.317,-0.14 -0.325,-0.318l-0.282,-4.09l0.282,-7.824c0.008,-0.181 0.151,-0.321 0.325,-0.321c0.174,0 0.316,0.14 0.325,0.321l0.318,7.824l-0.318,4.09Zm-1.596,0.024l0,-0.002c-0.009,0.163 -0.137,0.29 -0.292,0.29c-0.155,0 -0.283,-0.126 -0.291,-0.288l-0.302,-4.116l0.302,-6.367c0.008,-0.162 0.136,-0.288 0.291,-0.288c0.155,0 0.283,0.126 0.292,0.288l0.342,6.367l-0.342,4.116Zm-1.585,-0.002c-0.01,0.146 -0.12,0.256 -0.258,0.256c-0.139,0 -0.251,-0.11 -0.259,-0.256l-0.32,-4.114l0.32,-3.913c0.009,-0.147 0.12,-0.257 0.259,-0.257c0.138,0 0.249,0.109 0.258,0.253l0.364,3.918l-0.364,4.113Zm-1.571,-0.035c-0.011,0.129 -0.108,0.223 -0.226,0.223c-0.119,0 -0.218,-0.094 -0.226,-0.223l-0.34,-4.079l0.341,-4.218c0.009,-0.129 0.106,-0.225 0.226,-0.225c0.118,0 0.214,0.096 0.226,0.222l0.385,4.221l-0.386,4.079Zm-1.559,-0.122c-0.011,0.107 -0.093,0.187 -0.193,0.187c-0.102,0 -0.184,-0.08 -0.194,-0.19l-0.359,-3.956l0.359,-4.106c0.01,-0.111 0.092,-0.192 0.194,-0.192c0.099,0 0.182,0.081 0.193,0.192l0.409,4.106l-0.409,3.959Zm-1.547,-0.573l-0.161,0.155l-0.161,-0.157l-0.378,-3.383l0.378,-3.462l0.161,-0.156l0.161,0.156l0.43,3.462l-0.43,3.385Zm-1.431,-1.281l-0.154,0.148l-0.154,-0.148l-0.281,-2.105l0.281,-2.14l0.154,-0.153l0.154,0.153l0.334,2.14l-0.334,2.105Zm18.429,-31.233c-15.189,0 -27.501,12.311 -27.501,27.499c0,15.189 12.312,27.501 27.501,27.501c15.186,0 27.499,-12.312 27.499,-27.501c0,-15.188 -12.314,-27.499 -27.499,-27.499Z" style="fill:#a6a8ab;fill-rule:nonzero;"/></g></svg>