<?xml version="1.0" encoding="UTF-8" standalone="no"?><!DOCTYPE svg PUBLIC "-//W3C//DTD SVG 1.1//EN" "http://www.w3.org/Graphics/SVG/1.1/DTD/svg11.dtd"><svg width="100%" height="100%" viewBox="0 0 55 55" version="1.1" xmlns="http://www.w3.org/2000/svg" xmlns:xlink="http://www.w3.org/1999/xlink" xml:space="preserve" xmlns:serif="http://www.serif.com/" style="fill-rule:evenodd;clip-rule:evenodd;stroke-linejoin:round;stroke-miterlimit:1.41421;"><g><path d="M45.064,24.734c-0.56,0 -0.892,-0.136 -1.417,-0.424c-4.977,-2.984 -12.702,-4.628 -20.172,-4.628c-3.729,0 -7.517,0.379 -10.986,1.321c-0.399,0.1 -0.904,0.3 -1.41,0.3c-1.467,0 -2.592,-1.16 -2.592,-2.627c0,-1.495 0.926,-2.334 1.925,-2.629c3.92,-1.155 8.296,-1.693 13.053,-1.693c8.075,0 16.57,1.661 22.776,5.306c0.837,0.474 1.417,1.188 1.417,2.497c0,1.499 -1.205,2.577 -2.594,2.577Zm-3.411,8.465c-0.597,0 -0.973,-0.241 -1.378,-0.477c-4.474,-2.654 -10.673,-4.418 -17.463,-4.418c-3.482,0 -6.487,0.487 -8.975,1.15c-0.536,0.147 -0.837,0.306 -1.338,0.306c-1.183,0 -2.149,-0.964 -2.149,-2.156c0,-1.169 0.567,-1.974 1.711,-2.297c3.091,-0.849 6.248,-1.504 10.843,-1.504c7.198,0 14.161,1.793 19.636,5.069c0.918,0.527 1.256,1.194 1.256,2.174c0,1.191 -0.948,2.153 -2.143,2.153Zm-2.997,7.278c-0.445,0 -0.749,-0.154 -1.164,-0.407c-3.986,-2.411 -8.955,-3.678 -14.229,-3.678c-2.943,0 -5.904,0.377 -8.674,0.953c-0.451,0.098 -1.017,0.272 -1.356,0.272c-1.044,0 -1.741,-0.83 -1.741,-1.728c0,-1.156 0.667,-1.731 1.496,-1.889c3.397,-0.774 6.78,-1.216 10.293,-1.216c6.018,0 11.381,1.38 15.996,4.146c0.687,0.401 1.089,0.81 1.089,1.828c0,0.991 -0.806,1.719 -1.71,1.719Zm-11.157,-40.475c-15.187,0 -27.499,12.311 -27.499,27.499c0,15.187 12.312,27.499 27.499,27.499c15.188,0 27.501,-12.312 27.501,-27.499c0,-15.188 -12.313,-27.499 -27.501,-27.499Z" style="fill:#a8aaad;fill-rule:nonzero;"/></g></svg>