<?xml version="1.0" encoding="UTF-8" standalone="no"?><!DOCTYPE svg PUBLIC "-//W3C//DTD SVG 1.1//EN" "http://www.w3.org/Graphics/SVG/1.1/DTD/svg11.dtd"><svg width="100%" height="100%" viewBox="0 0 365 107" version="1.1" xmlns="http://www.w3.org/2000/svg" xmlns:xlink="http://www.w3.org/1999/xlink" xml:space="preserve" xmlns:serif="http://www.serif.com/" style="fill-rule:evenodd;clip-rule:evenodd;stroke-linejoin:round;stroke-miterlimit:1.41421;"><g><path d="M31.821,11.762l-16.108,0c-1.789,0 -2.817,0.956 -2.817,2.623l0,5.418c0,0.854 0.362,2.264 2.792,2.307l16.133,0c5.765,0 6.21,2.4 6.21,9.821l0,12.543c0,4.592 -9.329,14.031 -13.864,14.031l-7.608,0c-4.674,0 -6.251,-1.531 -6.251,-6.072l-0.023,-36.211l0,-13.354c0,-1.295 -1.093,-2.388 -2.386,-2.388l-5.517,0c-1.291,0 -2.382,1.095 -2.382,2.392l0,49.566c0,10.225 6.22,16.332 16.56,16.332l7.609,0c10.165,0 24.168,-14.072 24.168,-24.284l0,-12.548c-0.002,-9.976 -1.964,-20.176 -16.516,-20.176Z" style="fill:#a6a8ab;fill-rule:nonzero;"/><path d="M130.251,11.762l-25.543,0c-1.788,0 -2.815,0.956 -2.815,2.623l0,5.418c0,0.856 0.363,2.294 2.792,2.337l25.568,0c5.765,0 6.21,2.37 6.21,9.791l0,12.543c0,4.592 -9.329,14.031 -13.864,14.031l-7.609,0c-4.674,0 -6.252,-1.531 -6.252,-6.072l0,-3.954c0.227,-2.927 0.506,-5.952 5.938,-5.952l16.865,0c1.214,0 2.256,-1.283 2.256,-2.333l0,-5.601c0,-1.118 -1.062,-2.363 -2.583,-2.363c-0.002,0 -6.431,0.027 -16.653,0.027c-10.098,0.028 -15.812,6.03 -16.089,16.898l0.002,3.285c0,10.225 6.174,16.332 16.514,16.332l7.609,0c10.165,0 24.168,-14.073 24.168,-24.284l0,-12.548c0,-9.978 -1.962,-20.178 -16.514,-20.178Z" style="fill:#a6a8ab;fill-rule:nonzero;"/><path d="M93.05,58.393l-25.568,0.029c-5.765,0 -6.251,-2.4 -6.251,-9.821l0.04,-12.541c0,-4.592 9.329,-14.035 13.865,-14.035l7.608,0c4.674,0 6.251,1.532 6.251,6.075l0,3.955c-0.225,2.925 -0.506,5.952 -5.939,5.952l-16.926,0.001c-1.214,0 -2.254,1.282 -2.254,2.33l0,5.601c0,0.966 0.919,2.361 2.581,2.361c0.002,0 6.493,-0.026 16.715,-0.026c10.099,-0.029 15.813,-6.029 16.088,-16.896l-0.002,-3.288c0,-10.225 -6.173,-16.33 -16.514,-16.33l-7.608,0c-10.165,0 -24.168,14.071 -24.168,24.286l0,12.546c0,9.977 1.961,20.177 16.514,20.177l25.543,0c1.79,0 2.816,-0.955 2.816,-2.623l0,-5.416c0,-0.853 -0.362,-2.295 -2.791,-2.337Z" style="fill:#a6a8ab;fill-rule:nonzero;"/><path d="M205.539,11.795l-7.612,0c-10.34,0 -16.512,6.157 -16.512,16.472l-0.045,49.09c0,1.473 0.727,2.386 1.898,2.386l6.002,0c1.272,0 2.386,-1.115 2.386,-2.383l0.025,-49.093c0,-4.56 1.636,-6.177 6.247,-6.177l7.613,0c4.518,0 13.85,9.514 13.85,14.14c0,0 -0.005,13.64 0,14.093c0.034,2.913 0.059,5.429 -1.323,6.829c-0.936,0.943 -2.529,1.403 -4.874,1.403l-16.517,0c-1.293,0 -2.389,1.09 -2.389,2.383l0,5.42c0,1.289 1.094,2.382 2.389,2.382l16.517,0c14.51,0 16.513,-9.601 16.513,-19.976l0,-12.538c-0.004,-10.275 -14.006,-24.431 -24.168,-24.431Z" style="fill:#a6a8ab;fill-rule:nonzero;"/><path d="M178.429,11.737l-18.748,0l0,-8.869c0,-1.295 -1.116,-2.388 -2.409,-2.388l-5.516,0c-1.294,0 -2.338,1.095 -2.338,2.392l0,42.218c0.28,3.918 2.528,8.733 6.013,12.925c3.918,4.907 11.088,10.37 17.551,10.737c0.033,0.002 1.56,0.008 3.282,0.008c2.496,-0.212 2.384,-1.655 2.484,-2.044l0,-5.888c-0.032,-1.522 -1.562,-2.288 -2.586,-2.333l-0.01,0c-0.648,0 -2.395,0.049 -2.692,0.057c-3.776,-0.425 -8.134,-4.867 -9.384,-6.224c-2.439,-2.634 -4.37,-5.973 -4.395,-7.602l0,-22.581c3.276,-0.003 18.146,-0.023 18.738,-0.023c1.048,0 2.193,-1.095 2.228,-2.129l0,-5.934c0.002,-0.71 -0.838,-2.322 -2.218,-2.322Z" style="fill:#a6a8ab;fill-rule:nonzero;"/><path d="M351.197,11.737l-18.749,0l0,-8.869c0,-1.293 -1.117,-2.388 -2.41,-2.388l-5.516,0c-1.292,0 -2.336,1.095 -2.336,2.392l0,42.218c0.28,3.918 2.528,8.733 6.012,12.925c3.919,4.907 11.089,10.37 17.552,10.737c0.035,0.002 1.56,0.008 3.282,0.008c1.964,-0.166 2.324,-1.528 2.459,-2.044l0.02,-0.078l0.007,-0.107l0,-5.703c-0.032,-1.522 -1.562,-2.288 -2.586,-2.333l-0.01,0c-0.65,0 -2.395,0.049 -2.692,0.057c-3.776,-0.425 -8.134,-4.867 -9.384,-6.224c-2.439,-2.634 -4.37,-5.973 -4.395,-7.602l0,-22.581c3.275,-0.003 18.146,-0.023 18.738,-0.023c1.048,0 2.193,-1.095 2.229,-2.129l0,-5.934c-0.001,-0.71 -0.841,-2.322 -2.221,-2.322Z" style="fill:#a6a8ab;fill-rule:nonzero;"/><path d="M256.479,58.504l-7.61,0c-4.676,0 -6.251,-1.532 -6.251,-6.072l0,-24.24c0.083,-5.696 2.925,-5.887 5.209,-6.038l16.304,-0.045c5.763,0 6.249,2.399 6.249,9.821l-0.039,12.543c0.002,4.591 -9.327,14.031 -13.862,14.031Zm7.652,-46.742l-15.423,0c-10.597,0.08 -15.946,5.648 -16.357,17.026l0.004,23.652c0,10.225 6.173,16.332 16.514,16.332l7.61,0c10.163,0 24.166,-14.073 24.166,-24.284l0,-12.548c0,-9.978 -1.961,-20.178 -16.514,-20.178Z" style="fill:#a6a8ab;fill-rule:nonzero;"/><path d="M319.55,13.649c-0.072,-0.868 -0.793,-1.787 -2.21,-1.886l-0.021,-0.001l-0.024,0l-9.806,0c-10.163,0 -24.236,14.071 -24.236,24.286l0,30.431c0,1.472 0.727,2.386 1.899,2.386l6.35,0c1.272,0 2.061,-1.114 2.061,-2.382l0.007,-30.423c0,-4.592 9.386,-14.035 13.921,-14.035l9.677,0c1.108,0 2.345,-0.864 2.407,-2.257c0,-1.367 -0.025,-5.191 -0.025,-6.119Z" style="fill:#a6a8ab;fill-rule:nonzero;"/><path d="M314.631,80.192c0,0 -2.864,-3.367 -3.915,-4.439l-0.057,-0.058l-0.068,-0.042c-0.422,-0.252 -0.854,-0.382 -1.285,-0.382c-0.689,0 -1.36,0.322 -1.996,0.958l-13.74,13.59l0,-15.529l-0.02,0c-0.07,-1.193 -0.84,-2.206 -2.049,-2.206l-6.351,0c-1.171,0 -1.847,0.913 -1.847,2.386l0,15.349l-13.831,-13.834c-0.429,-0.417 -0.998,-0.635 -1.648,-0.635c-0.574,0 -1.172,0.175 -1.49,0.437c-1.07,0.964 -1.883,1.702 -4.07,3.777c-0.659,0.591 -1.038,2.116 -0.139,3.236l0.022,0.027l0.025,0.023l22.146,22.143c1.288,1.293 2.776,2.007 4.188,2.007c0.786,0 1.538,-0.225 2.179,-0.645c0.769,-0.336 1.52,-0.865 2.234,-1.57l21.306,-21.309c1.021,-0.908 1.19,-2.208 0.406,-3.284Z" style="fill:#a6a8ab;fill-rule:nonzero;"/></g></svg>