<?xml version="1.0" encoding="UTF-8" standalone="no"?><!DOCTYPE svg PUBLIC "-//W3C//DTD SVG 1.1//EN" "http://www.w3.org/Graphics/SVG/1.1/DTD/svg11.dtd"><svg width="100%" height="100%" viewBox="0 0 720 720" version="1.1" xmlns="http://www.w3.org/2000/svg" xmlns:xlink="http://www.w3.org/1999/xlink" xml:space="preserve" xmlns:serif="http://www.serif.com/" style="fill-rule:evenodd;clip-rule:evenodd;stroke-linejoin:round;stroke-miterlimit:1.41421;"><path d="M156.652,0c-86.517,0 -156.652,70.619 -156.652,157.729l0,404.542c0,87.11 70.135,157.729 156.652,157.729l406.696,0c86.517,0 156.652,-70.619 156.652,-157.729l0,-404.542c0,-87.11 -70.135,-157.729 -156.652,-157.729l-406.696,0Z" style="fill:#a7a9ac;fill-rule:nonzero;"/><path d="M468.366,590.829c29.759,0 57.848,-11.725 79.092,-33.014c21.246,-21.29 32.946,-49.437 32.946,-79.257l0,-233.716c0,-29.82 -11.7,-57.967 -32.946,-79.257c-21.244,-21.29 -49.333,-33.014 -79.092,-33.014l-218.88,0c-29.759,0 -57.848,11.724 -79.093,33.014c-21.246,21.29 -32.946,49.437 -32.946,79.257l0,233.716c0,29.82 11.7,57.967 32.946,79.257c21.245,21.289 49.334,33.014 79.093,33.014l218.88,0Zm0,40.322l-218.88,0c-83.753,0 -152.277,-68.667 -152.277,-152.593l0,-233.716c0,-83.926 68.524,-152.593 152.277,-152.593l218.88,0c83.753,0 152.277,68.667 152.277,152.593l0,233.716c0,83.926 -68.524,152.593 -152.277,152.593" style="fill:#fff;fill-rule:nonzero;"/><path d="M359.041,265.156c-52.127,0 -94.383,42.344 -94.383,94.578c0,52.234 42.256,94.579 94.383,94.579c52.127,0 94.382,-42.345 94.382,-94.579c0,-52.234 -42.255,-94.578 -94.382,-94.578m144.831,94.464c0,79.769 -64.532,144.435 -144.138,144.435c-79.604,0 -144.137,-64.666 -144.137,-144.435c0,-79.77 64.533,-144.437 144.137,-144.437c79.606,0 144.138,64.667 144.138,144.437" style="fill:#fff;fill-rule:nonzero;"/><path d="M540.316,212.937c0,18.888 -15.28,34.201 -34.13,34.201c-18.849,0 -34.129,-15.313 -34.129,-34.201c0,-18.887 15.28,-34.2 34.129,-34.2c18.85,0 34.13,15.313 34.13,34.2" style="fill:#fff;fill-rule:nonzero;"/></svg>